<?xml version="1.0" encoding="UTF-8" standalone="no"?>
<!DOCTYPE svg PUBLIC "-//W3C//DTD SVG 1.1//EN"
 "http://www.w3.org/Graphics/SVG/1.1/DTD/svg11.dtd">
<!-- Generated by graphviz version 2.34.0 (20130907.0228)
 -->
<!-- Title: %3 Pages: 1 -->
<svg width="648pt" height="120pt"
 viewBox="0.00 0.00 648.00 120.00" xmlns="http://www.w3.org/2000/svg" xmlns:xlink="http://www.w3.org/1999/xlink">
<g id="graph0" class="graph" transform="scale(1 1) rotate(0) translate(4 116)">
<title>%3</title>
<polygon fill="white" stroke="white" points="-4,4 -4,-116 644,-116 644,4 -4,4"/>
<!-- org_liveSense_framework_gwt -->
<g id="node1" class="node"><title>org_liveSense_framework_gwt</title>
<polygon fill="yellow" stroke="black" points="247,-75 247,-111 423,-111 423,-75 247,-75"/>
<text text-anchor="middle" x="335" y="-100.1" font-family="Arial" font-size="8.00">liveSense :: Framework :: GWT framework</text>
<polyline fill="none" stroke="black" points="247,-93 423,-93 "/>
<text text-anchor="middle" x="335" y="-82.1" font-family="Arial" font-size="8.00">org.liveSense.framework.gwt(2&#45;SNAPSHOT)</text>
</g>
<!-- org_apache_geronimo_specs_geronimo_servlet_3_0_spec -->
<g id="node2" class="node"><title>org_apache_geronimo_specs_geronimo_servlet_3_0_spec</title>
<polygon fill="green" stroke="black" points="0,-1 0,-37 230,-37 230,-1 0,-1"/>
<text text-anchor="middle" x="115" y="-26.1" font-family="Arial" font-size="8.00">Servlet 3.0</text>
<polyline fill="none" stroke="black" points="0,-19 230,-19 "/>
<text text-anchor="middle" x="115" y="-8.1" font-family="Arial" font-size="8.00">org.apache.geronimo.specs.geronimo&#45;servlet_3.0_spec(1.0)</text>
</g>
<!-- org_liveSense_framework_gwt&#45;&gt;org_apache_geronimo_specs_geronimo_servlet_3_0_spec -->
<g id="edge1" class="edge"><title>org_liveSense_framework_gwt&#45;&gt;org_apache_geronimo_specs_geronimo_servlet_3_0_spec</title>
<path fill="none" stroke="yellow" d="M282.863,-74.937C251.06,-64.5286 210.235,-51.1679 176.81,-40.2287"/>
<polygon fill="yellow" stroke="yellow" points="177.736,-36.8492 167.143,-37.0651 175.559,-43.502 177.736,-36.8492"/>
</g>
<!-- org_apache_servicemix_bundles_junit -->
<g id="node3" class="node"><title>org_apache_servicemix_bundles_junit</title>
<polygon fill="green" stroke="black" points="248.5,-1 248.5,-37 421.5,-37 421.5,-1 248.5,-1"/>
<text text-anchor="middle" x="335" y="-26.1" font-family="Arial" font-size="8.00">Apache ServiceMix :: Bundles :: junit</text>
<polyline fill="none" stroke="black" points="248.5,-19 421.5,-19 "/>
<text text-anchor="middle" x="335" y="-8.1" font-family="Arial" font-size="8.00">org.apache.servicemix.bundles.junit(3.8.2.4)</text>
</g>
<!-- org_liveSense_framework_gwt&#45;&gt;org_apache_servicemix_bundles_junit -->
<g id="edge2" class="edge"><title>org_liveSense_framework_gwt&#45;&gt;org_apache_servicemix_bundles_junit</title>
<path fill="none" stroke="yellow" d="M335,-74.937C335,-66.8072 335,-56.8761 335,-47.7047"/>
<polygon fill="yellow" stroke="yellow" points="338.5,-47.4406 335,-37.4407 331.5,-47.4407 338.5,-47.4406"/>
</g>
<!-- org_apache_servicemix_specs_jsr303_api_1_0_0 -->
<g id="node4" class="node"><title>org_apache_servicemix_specs_jsr303_api_1_0_0</title>
<polygon fill="green" stroke="black" points="439.5,-1 439.5,-37 640.5,-37 640.5,-1 439.5,-1"/>
<text text-anchor="middle" x="540" y="-26.1" font-family="Arial" font-size="8.00">Apache ServiceMix :: Specs :: JSR&#45;303 API 1.0.0</text>
<polyline fill="none" stroke="black" points="439.5,-19 640.5,-19 "/>
<text text-anchor="middle" x="540" y="-8.1" font-family="Arial" font-size="8.00">org.apache.servicemix.specs.jsr303&#45;api&#45;1.0.0(2.2.0)</text>
</g>
<!-- org_liveSense_framework_gwt&#45;&gt;org_apache_servicemix_specs_jsr303_api_1_0_0 -->
<g id="edge3" class="edge"><title>org_liveSense_framework_gwt&#45;&gt;org_apache_servicemix_specs_jsr303_api_1_0_0</title>
<path fill="none" stroke="yellow" d="M383.582,-74.937C412.963,-64.618 450.606,-51.397 481.601,-40.5109"/>
<polygon fill="yellow" stroke="yellow" points="483.137,-43.6812 491.412,-37.0651 480.817,-37.0767 483.137,-43.6812"/>
</g>
</g>
</svg>
