<?xml version="1.0" encoding="UTF-8" standalone="no"?>
<!DOCTYPE svg PUBLIC "-//W3C//DTD SVG 1.1//EN"
 "http://www.w3.org/Graphics/SVG/1.1/DTD/svg11.dtd">
<!-- Generated by graphviz version 2.28.0 (20110509.1545)
 -->
<!-- Title: _anonymous_0 Pages: 1 -->
<svg width="1325pt" height="638pt"
 viewBox="0.00 0.00 1325.03 638.00" xmlns="http://www.w3.org/2000/svg" xmlns:xlink="http://www.w3.org/1999/xlink">
<g id="graph1" class="graph" transform="scale(1 1) rotate(0) translate(4 634)">
<title>_anonymous_0</title>
<polygon fill="white" stroke="white" points="-4,5 -4,-634 1322.03,-634 1322.03,5 -4,5"/>
<!-- org_liveSense_framework_gwt -->
<g id="node1" class="node"><title>org_liveSense_framework_gwt</title>
<polygon fill="yellow" stroke="black" points="621.581,-593 621.581,-629 796.737,-629 796.737,-593 621.581,-593"/>
<text text-anchor="middle" x="709.159" y="-617" font-family="Arial" font-size="8.00">liveSense :: Framework :: GWT framework</text>
<polyline fill="none" stroke="black" points="621.581,-611.801 796.737,-611.801 "/>
<text text-anchor="middle" x="709.159" y="-599.301" font-family="Arial" font-size="8.00">org.liveSense.framework.gwt(2&#45;SNAPSHOT)</text>
</g>
<!-- org_apache_felix_http_jetty -->
<g id="node2" class="node"><title>org_apache_felix_http_jetty</title>
<polygon fill="green" stroke="black" points="539.128,-519 539.128,-555 667.19,-555 667.19,-519 539.128,-519"/>
<text text-anchor="middle" x="603.159" y="-543" font-family="Arial" font-size="8.00">Apache Felix Http Jetty</text>
<polyline fill="none" stroke="black" points="539.128,-537.801 667.19,-537.801 "/>
<text text-anchor="middle" x="603.159" y="-525.301" font-family="Arial" font-size="8.00">org.apache.felix.http.jetty(2.2.0)</text>
</g>
<!-- org_liveSense_framework_gwt&#45;&gt;org_apache_felix_http_jetty -->
<g id="edge2" class="edge"><title>org_liveSense_framework_gwt&#45;&gt;org_apache_felix_http_jetty</title>
<path fill="none" stroke="yellow" d="M684.038,-592.937C670.016,-583.412 652.353,-571.415 637.113,-561.063"/>
<polygon fill="yellow" stroke="yellow" points="638.705,-557.914 628.466,-555.19 634.772,-563.704 638.705,-557.914"/>
</g>
<!-- org_liveSense_misc_jsr303 -->
<g id="node3" class="node"><title>org_liveSense_misc_jsr303</title>
<polygon fill="green" stroke="black" points="734.526,-519 734.526,-555 907.792,-555 907.792,-519 734.526,-519"/>
<text text-anchor="middle" x="821.159" y="-543" font-family="Arial" font-size="8.00">liveSense :: Misc :: JSR 303 Bean Validation</text>
<polyline fill="none" stroke="black" points="734.526,-537.801 907.792,-537.801 "/>
<text text-anchor="middle" x="821.159" y="-525.301" font-family="Arial" font-size="8.00">org.liveSense.misc.jsr303(2&#45;SNAPSHOT)</text>
</g>
<!-- org_liveSense_framework_gwt&#45;&gt;org_liveSense_misc_jsr303 -->
<g id="edge4" class="edge"><title>org_liveSense_framework_gwt&#45;&gt;org_liveSense_misc_jsr303</title>
<path fill="none" stroke="yellow" d="M735.701,-592.937C750.656,-583.323 769.529,-571.19 785.733,-560.774"/>
<polygon fill="yellow" stroke="yellow" points="787.9,-563.542 794.419,-555.19 784.114,-557.654 787.9,-563.542"/>
</g>
<!-- org_apache_sling_commons_logservice -->
<g id="node4" class="node"><title>org_apache_sling_commons_logservice</title>
<polygon fill="#3182bd" stroke="black" points="868.114,-445 868.114,-481 1052.2,-481 1052.2,-445 868.114,-445"/>
<text text-anchor="middle" x="960.159" y="-469" font-family="Arial" font-size="8.00">Apache Sling OSGi LogService Implementation</text>
<polyline fill="none" stroke="black" points="868.114,-463.801 1052.2,-463.801 "/>
<text text-anchor="middle" x="960.159" y="-451.301" font-family="Arial" font-size="8.00">org.apache.sling.commons.logservice(1.0.0)</text>
</g>
<!-- org_apache_felix_http_jetty&#45;&gt;org_apache_sling_commons_logservice -->
<g id="edge6" class="edge"><title>org_apache_felix_http_jetty&#45;&gt;org_apache_sling_commons_logservice</title>
<path fill="none" stroke="green" d="M667.396,-523.045C722.656,-511.9 803.122,-495.671 865.717,-483.047"/>
<polygon fill="green" stroke="green" points="866.492,-486.461 875.603,-481.053 865.108,-479.6 866.492,-486.461"/>
</g>
<!-- slf4j_api -->
<g id="node5" class="node"><title>slf4j_api</title>
<polygon fill="#3182bd" stroke="black" points="780.036,-371 780.036,-407 846.282,-407 846.282,-371 780.036,-371"/>
<text text-anchor="middle" x="813.159" y="-395" font-family="Arial" font-size="8.00">slf4j&#45;api</text>
<polyline fill="none" stroke="black" points="780.036,-389.801 846.282,-389.801 "/>
<text text-anchor="middle" x="813.159" y="-377.301" font-family="Arial" font-size="8.00">slf4j.api(1.6.1)</text>
</g>
<!-- org_apache_felix_http_jetty&#45;&gt;slf4j_api -->
<g id="edge8" class="edge"><title>org_apache_felix_http_jetty&#45;&gt;slf4j_api</title>
<path fill="none" stroke="green" d="M667.48,-524.532C697.816,-516.587 733.004,-503.439 759.159,-482 780.207,-464.747 794.885,-436.986 803.569,-416.466"/>
<polygon fill="green" stroke="green" points="806.871,-417.636 807.353,-407.052 800.376,-415.026 806.871,-417.636"/>
</g>
<!-- org_apache_felix_configadmin -->
<g id="node6" class="node"><title>org_apache_felix_configadmin</title>
<polygon fill="#3182bd" stroke="black" points="922.454,-1 922.454,-37 1087.86,-37 1087.86,-1 922.454,-1"/>
<text text-anchor="middle" x="1005.16" y="-25" font-family="Arial" font-size="8.00">Apache Felix Configuration Admin Service</text>
<polyline fill="none" stroke="black" points="922.454,-19.8008 1087.86,-19.8008 "/>
<text text-anchor="middle" x="1005.16" y="-7.30078" font-family="Arial" font-size="8.00">org.apache.felix.configadmin(1.2.8)</text>
</g>
<!-- org_apache_felix_http_jetty&#45;&gt;org_apache_felix_configadmin -->
<g id="edge10" class="edge"><title>org_apache_felix_http_jetty&#45;&gt;org_apache_felix_configadmin</title>
<path fill="none" stroke="green" d="M538.948,-533.911C384.165,-527.135 3.15887,-499.35 3.15887,-390 3.15887,-390 3.15887,-390 3.15887,-166 3.15887,-124.248 -9.47662,-101.247 22.1589,-74 55.5528,-45.2384 673.417,-27.7658 912.126,-22.0644"/>
<polygon fill="green" stroke="green" points="912.261,-25.5623 922.175,-21.826 912.094,-18.5642 912.261,-25.5623"/>
</g>
<!-- org_liveSense_misc_jsr303&#45;&gt;slf4j_api -->
<g id="edge14" class="edge"><title>org_liveSense_misc_jsr303&#45;&gt;slf4j_api</title>
<path fill="none" stroke="green" d="M820.226,-518.966C818.86,-494.045 816.303,-447.374 814.668,-417.537"/>
<polygon fill="green" stroke="green" points="818.153,-417.171 814.111,-407.378 811.164,-417.554 818.153,-417.171"/>
</g>
<!-- org_liveSense_misc_javax_persistence -->
<g id="node7" class="node"><title>org_liveSense_misc_javax_persistence</title>
<polygon fill="#3182bd" stroke="black" points="1070.35,-445 1070.35,-481 1273.97,-481 1273.97,-445 1070.35,-445"/>
<text text-anchor="middle" x="1172.16" y="-469" font-family="Arial" font-size="8.00">liveSense :: Extension :: javax.persistence</text>
<polyline fill="none" stroke="black" points="1070.35,-463.801 1273.97,-463.801 "/>
<text text-anchor="middle" x="1172.16" y="-451.301" font-family="Arial" font-size="8.00">org.liveSense.misc.javax.persistence(2&#45;SNAPSHOT)</text>
</g>
<!-- org_liveSense_misc_jsr303&#45;&gt;org_liveSense_misc_javax_persistence -->
<g id="edge12" class="edge"><title>org_liveSense_misc_jsr303&#45;&gt;org_liveSense_misc_javax_persistence</title>
<path fill="none" stroke="green" d="M904.341,-518.937C956.919,-508.152 1024.95,-494.196 1079.29,-483.05"/>
<polygon fill="green" stroke="green" points="1080.18,-486.441 1089.27,-481.003 1078.77,-479.584 1080.18,-486.441"/>
</g>
<!-- org_apache_sling_commons_logservice&#45;&gt;slf4j_api -->
<g id="edge16" class="edge"><title>org_apache_sling_commons_logservice&#45;&gt;slf4j_api</title>
<path fill="none" stroke="#3182bd" d="M925.322,-444.937C904.521,-434.749 877.944,-421.732 855.883,-410.926"/>
<polygon fill="#3182bd" stroke="#3182bd" points="857.254,-407.7 846.734,-406.445 854.175,-413.987 857.254,-407.7"/>
</g>
<!-- ch_qos_logback_classic -->
<g id="node8" class="node"><title>ch_qos_logback_classic</title>
<polygon fill="#deebf7" stroke="black" points="598.801,-297 598.801,-333 717.516,-333 717.516,-297 598.801,-297"/>
<text text-anchor="middle" x="658.159" y="-321" font-family="Arial" font-size="8.00">Logback Classic Module</text>
<polyline fill="none" stroke="black" points="598.801,-315.801 717.516,-315.801 "/>
<text text-anchor="middle" x="658.159" y="-303.301" font-family="Arial" font-size="8.00">ch.qos.logback.classic(1.0.3)</text>
</g>
<!-- slf4j_api&#45;&gt;ch_qos_logback_classic -->
<g id="edge18" class="edge"><title>slf4j_api&#45;&gt;ch_qos_logback_classic</title>
<path fill="none" stroke="#9ecae1" d="M779.749,-374.961C755.811,-364.541 723.593,-349.714 698.282,-337.537"/>
<polygon fill="#9ecae1" stroke="#9ecae1" points="699.476,-334.226 688.951,-333.014 696.423,-340.525 699.476,-334.226"/>
</g>
<!-- org_apache_felix_configadmin&#45;&gt;org_apache_sling_commons_logservice -->
<g id="edge76" class="edge"><title>org_apache_felix_configadmin&#45;&gt;org_apache_sling_commons_logservice</title>
<path fill="none" stroke="#bdbdbd" d="M995.614,-37.0552C990.13,-47.4617 983.493,-61.1866 979.159,-74 965.78,-113.55 960.159,-124.248 960.159,-166 960.159,-316 960.159,-316 960.159,-316 960.159,-357.356 960.159,-405.3 960.159,-434.637"/>
<polygon fill="#bdbdbd" stroke="#bdbdbd" points="956.659,-434.917 960.159,-444.917 963.659,-434.917 956.659,-434.917"/>
</g>
<!-- ch_qos_logback_classic&#45;&gt;org_apache_felix_http_jetty -->
<g id="edge22" class="edge"><title>ch_qos_logback_classic&#45;&gt;org_apache_felix_http_jetty</title>
<path fill="none" stroke="#deebf7" d="M653.863,-333.183C644.344,-371.261 621.41,-462.995 609.936,-508.893"/>
<polygon fill="#deebf7" stroke="#deebf7" points="606.505,-508.187 607.475,-518.737 613.296,-509.884 606.505,-508.187"/>
</g>
<!-- ch_qos_logback_classic&#45;&gt;slf4j_api -->
<g id="edge24" class="edge"><title>ch_qos_logback_classic&#45;&gt;slf4j_api</title>
<path fill="none" stroke="#deebf7" d="M700.736,-333.065C723.34,-343.072 750.889,-355.807 773.102,-366.495"/>
<polygon fill="#deebf7" stroke="#deebf7" points="771.741,-369.725 782.266,-370.937 774.794,-363.426 771.741,-369.725"/>
</g>
<!-- ch_qos_logback_core -->
<g id="node9" class="node"><title>ch_qos_logback_core</title>
<polygon fill="#bdbdbd" stroke="black" points="603.022,-223 603.022,-259 713.296,-259 713.296,-223 603.022,-223"/>
<text text-anchor="middle" x="658.159" y="-247" font-family="Arial" font-size="8.00">Logback Core Module</text>
<polyline fill="none" stroke="black" points="603.022,-241.801 713.296,-241.801 "/>
<text text-anchor="middle" x="658.159" y="-229.301" font-family="Arial" font-size="8.00">ch.qos.logback.core(1.0.3)</text>
</g>
<!-- ch_qos_logback_classic&#45;&gt;ch_qos_logback_core -->
<g id="edge20" class="edge"><title>ch_qos_logback_classic&#45;&gt;ch_qos_logback_core</title>
<path fill="none" stroke="#deebf7" d="M658.159,-296.937C658.159,-288.807 658.159,-278.876 658.159,-269.705"/>
<polygon fill="#deebf7" stroke="#deebf7" points="661.659,-269.441 658.159,-259.441 654.659,-269.441 661.659,-269.441"/>
</g>
<!-- groovy_all -->
<g id="node10" class="node"><title>groovy_all</title>
<polygon fill="#bdbdbd" stroke="black" points="511.258,-223 511.258,-259 585.059,-259 585.059,-223 511.258,-223"/>
<text text-anchor="middle" x="548.159" y="-247" font-family="Arial" font-size="8.00">Groovy Runtime</text>
<polyline fill="none" stroke="black" points="511.258,-241.801 585.059,-241.801 "/>
<text text-anchor="middle" x="548.159" y="-229.301" font-family="Arial" font-size="8.00">groovy&#45;all(1.8.2)</text>
</g>
<!-- ch_qos_logback_classic&#45;&gt;groovy_all -->
<g id="edge26" class="edge"><title>ch_qos_logback_classic&#45;&gt;groovy_all</title>
<path fill="none" stroke="#deebf7" d="M632.09,-296.937C617.403,-287.323 598.866,-275.19 582.952,-264.774"/>
<polygon fill="#deebf7" stroke="#deebf7" points="584.705,-261.738 574.421,-259.19 580.872,-267.595 584.705,-261.738"/>
</g>
<!-- ch_qos_logback_core&#45;&gt;org_apache_felix_http_jetty -->
<g id="edge30" class="edge"><title>ch_qos_logback_core&#45;&gt;org_apache_felix_http_jetty</title>
<path fill="none" stroke="#bdbdbd" d="M625.5,-259.127C611.933,-268.123 597.631,-280.524 590.159,-296 556.001,-366.743 579.113,-463.232 593.735,-509.341"/>
<polygon fill="#bdbdbd" stroke="#bdbdbd" points="590.431,-510.498 596.879,-518.905 597.082,-508.313 590.431,-510.498"/>
</g>
<!-- org_glassfish_javax_mail -->
<g id="node11" class="node"><title>org_glassfish_javax_mail</title>
<polygon fill="#bdbdbd" stroke="black" points="539.911,-149 539.911,-185 692.407,-185 692.407,-149 539.911,-149"/>
<text text-anchor="middle" x="616.159" y="-173" font-family="Arial" font-size="8.00">javax.mail API v.1.4</text>
<polyline fill="none" stroke="black" points="539.911,-167.801 692.407,-167.801 "/>
<text text-anchor="middle" x="616.159" y="-155.301" font-family="Arial" font-size="8.00">org.glassfish.javax.mail(3.0.0.Preview)</text>
</g>
<!-- ch_qos_logback_core&#45;&gt;org_glassfish_javax_mail -->
<g id="edge28" class="edge"><title>ch_qos_logback_core&#45;&gt;org_glassfish_javax_mail</title>
<path fill="none" stroke="#bdbdbd" d="M648.205,-222.937C643.205,-214.365 637.037,-203.791 631.452,-194.217"/>
<polygon fill="#bdbdbd" stroke="#bdbdbd" points="634.395,-192.315 626.333,-185.441 628.348,-195.842 634.395,-192.315"/>
</g>
<!-- groovy_all&#45;&gt;org_apache_felix_http_jetty -->
<g id="edge34" class="edge"><title>groovy_all&#45;&gt;org_apache_felix_http_jetty</title>
<path fill="none" stroke="#bdbdbd" d="M551.362,-259.125C560.525,-308.101 586.894,-449.058 598.063,-508.761"/>
<polygon fill="#bdbdbd" stroke="#bdbdbd" points="594.685,-509.737 599.964,-518.923 601.566,-508.449 594.685,-509.737"/>
</g>
<!-- org_apache_servicemix_bundles_xstream -->
<g id="node12" class="node"><title>org_apache_servicemix_bundles_xstream</title>
<polygon fill="#bdbdbd" stroke="black" points="233.786,-149 233.786,-185 420.532,-185 420.532,-149 233.786,-149"/>
<text text-anchor="middle" x="327.159" y="-173" font-family="Arial" font-size="8.00">Apache ServiceMix :: Bundles :: xstream</text>
<polyline fill="none" stroke="black" points="233.786,-167.801 420.532,-167.801 "/>
<text text-anchor="middle" x="327.159" y="-155.301" font-family="Arial" font-size="8.00">org.apache.servicemix.bundles.xstream(1.4.1.1)</text>
</g>
<!-- groovy_all&#45;&gt;org_apache_servicemix_bundles_xstream -->
<g id="edge32" class="edge"><title>groovy_all&#45;&gt;org_apache_servicemix_bundles_xstream</title>
<path fill="none" stroke="#bdbdbd" d="M511.168,-227.949C477.978,-217.136 428.594,-201.047 389.341,-188.258"/>
<polygon fill="#bdbdbd" stroke="#bdbdbd" points="390.187,-184.853 379.595,-185.083 388.019,-191.509 390.187,-184.853"/>
</g>
<!-- org_apache_sling_scripting_jsp -->
<g id="node13" class="node"><title>org_apache_sling_scripting_jsp</title>
<polygon fill="#bdbdbd" stroke="black" points="747.79,-149 747.79,-185 894.528,-185 894.528,-149 747.79,-149"/>
<text text-anchor="middle" x="821.159" y="-173" font-family="Arial" font-size="8.00">Apache Sling Scripting JSP Support</text>
<polyline fill="none" stroke="black" points="747.79,-167.801 894.528,-167.801 "/>
<text text-anchor="middle" x="821.159" y="-155.301" font-family="Arial" font-size="8.00">org.apache.sling.scripting.jsp(2.0.24)</text>
</g>
<!-- groovy_all&#45;&gt;org_apache_sling_scripting_jsp -->
<g id="edge36" class="edge"><title>groovy_all&#45;&gt;org_apache_sling_scripting_jsp</title>
<path fill="none" stroke="#bdbdbd" d="M585.158,-225.01C588.185,-223.941 591.212,-222.922 594.159,-222 641.055,-207.325 694.475,-194.433 737.707,-184.929"/>
<polygon fill="#bdbdbd" stroke="#bdbdbd" points="738.59,-188.319 747.616,-182.771 737.1,-181.48 738.59,-188.319"/>
</g>
<!-- org_apache_servicemix_bundles_xpp3 -->
<g id="node14" class="node"><title>org_apache_servicemix_bundles_xpp3</title>
<polygon fill="#bdbdbd" stroke="black" points="232.887,-75 232.887,-111 421.43,-111 421.43,-75 232.887,-75"/>
<text text-anchor="middle" x="327.159" y="-99" font-family="Arial" font-size="8.00">Apache ServiceMix :: Bundles :: xpp3</text>
<polyline fill="none" stroke="black" points="232.887,-93.8008 421.43,-93.8008 "/>
<text text-anchor="middle" x="327.159" y="-81.3008" font-family="Arial" font-size="8.00">org.apache.servicemix.bundles.xpp3(1.1.0.4c_5)</text>
</g>
<!-- org_apache_servicemix_bundles_xstream&#45;&gt;org_apache_servicemix_bundles_xpp3 -->
<g id="edge38" class="edge"><title>org_apache_servicemix_bundles_xstream&#45;&gt;org_apache_servicemix_bundles_xpp3</title>
<path fill="none" stroke="#bdbdbd" d="M327.159,-148.937C327.159,-140.807 327.159,-130.876 327.159,-121.705"/>
<polygon fill="#bdbdbd" stroke="#bdbdbd" points="330.659,-121.441 327.159,-111.441 323.659,-121.441 330.659,-121.441"/>
</g>
<!-- org_apache_servicemix_bundles_cglib -->
<g id="node15" class="node"><title>org_apache_servicemix_bundles_cglib</title>
<polygon fill="#bdbdbd" stroke="black" points="31.3347,-75 31.3347,-111 214.983,-111 214.983,-75 31.3347,-75"/>
<text text-anchor="middle" x="123.159" y="-99" font-family="Arial" font-size="8.00">Apache ServiceMix Bundles: cglib&#45;2.1_3</text>
<polyline fill="none" stroke="black" points="31.3347,-93.8008 214.983,-93.8008 "/>
<text text-anchor="middle" x="123.159" y="-81.3008" font-family="Arial" font-size="8.00">org.apache.servicemix.bundles.cglib(2.1.0.3_4)</text>
</g>
<!-- org_apache_servicemix_bundles_xstream&#45;&gt;org_apache_servicemix_bundles_cglib -->
<g id="edge40" class="edge"><title>org_apache_servicemix_bundles_xstream&#45;&gt;org_apache_servicemix_bundles_cglib</title>
<path fill="none" stroke="#bdbdbd" d="M278.814,-148.937C249.576,-138.618 212.117,-125.397 181.273,-114.511"/>
<polygon fill="#bdbdbd" stroke="#bdbdbd" points="182.105,-111.093 171.51,-111.065 179.775,-117.694 182.105,-111.093"/>
</g>
<!-- org_apache_sling_scripting_jsp&#45;&gt;org_apache_felix_http_jetty -->
<g id="edge48" class="edge"><title>org_apache_sling_scripting_jsp&#45;&gt;org_apache_felix_http_jetty</title>
<path fill="none" stroke="#bdbdbd" d="M805.041,-185.363C782.732,-211.279 745.159,-262.564 745.159,-314 745.159,-390 745.159,-390 745.159,-390 745.159,-446.66 689.522,-489.592 647.9,-513.782"/>
<polygon fill="#bdbdbd" stroke="#bdbdbd" points="645.985,-510.843 638.991,-518.802 649.422,-516.941 645.985,-510.843"/>
</g>
<!-- org_apache_sling_scripting_jsp&#45;&gt;slf4j_api -->
<g id="edge52" class="edge"><title>org_apache_sling_scripting_jsp&#45;&gt;slf4j_api</title>
<path fill="none" stroke="#bdbdbd" d="M820.534,-185.183C819.152,-223.181 815.828,-314.609 814.155,-360.602"/>
<polygon fill="#bdbdbd" stroke="#bdbdbd" points="810.652,-360.616 813.787,-370.737 817.648,-360.871 810.652,-360.616"/>
</g>
<!-- org_apache_felix_scr -->
<g id="node16" class="node"><title>org_apache_felix_scr</title>
<polygon fill="#bdbdbd" stroke="black" points="988.467,-75 988.467,-111 1125.85,-111 1125.85,-75 988.467,-75"/>
<text text-anchor="middle" x="1057.16" y="-99" font-family="Arial" font-size="8.00">Apache Felix Declarative Services</text>
<polyline fill="none" stroke="black" points="988.467,-93.8008 1125.85,-93.8008 "/>
<text text-anchor="middle" x="1057.16" y="-81.3008" font-family="Arial" font-size="8.00">org.apache.felix.scr(1.6.0)</text>
</g>
<!-- org_apache_sling_scripting_jsp&#45;&gt;org_apache_felix_scr -->
<g id="edge42" class="edge"><title>org_apache_sling_scripting_jsp&#45;&gt;org_apache_felix_scr</title>
<path fill="none" stroke="#bdbdbd" d="M877.088,-148.937C911.35,-138.484 955.374,-125.053 991.315,-114.088"/>
<polygon fill="#bdbdbd" stroke="#bdbdbd" points="992.68,-117.331 1001.22,-111.065 990.637,-110.636 992.68,-117.331"/>
</g>
<!-- org_apache_sling_api -->
<g id="node17" class="node"><title>org_apache_sling_api</title>
<polygon fill="#bdbdbd" stroke="black" points="439.796,-75 439.796,-111 550.522,-111 550.522,-75 439.796,-75"/>
<text text-anchor="middle" x="495.159" y="-99" font-family="Arial" font-size="8.00">Apache Sling API</text>
<polyline fill="none" stroke="black" points="439.796,-93.8008 550.522,-93.8008 "/>
<text text-anchor="middle" x="495.159" y="-81.3008" font-family="Arial" font-size="8.00">org.apache.sling.api(2.2.4)</text>
</g>
<!-- org_apache_sling_scripting_jsp&#45;&gt;org_apache_sling_api -->
<g id="edge44" class="edge"><title>org_apache_sling_scripting_jsp&#45;&gt;org_apache_sling_api</title>
<path fill="none" stroke="#bdbdbd" d="M747.589,-150.772C743.044,-149.834 738.54,-148.904 734.159,-148 659.428,-132.583 637.973,-130.877 560.35,-112.215"/>
<polygon fill="#bdbdbd" stroke="#bdbdbd" points="561.141,-108.806 550.598,-109.853 559.493,-115.609 561.141,-108.806"/>
</g>
<!-- org_apache_sling_commons_classloader -->
<g id="node18" class="node"><title>org_apache_sling_commons_classloader</title>
<polygon fill="#bdbdbd" stroke="black" points="754.452,-75 754.452,-111 931.866,-111 931.866,-75 754.452,-75"/>
<text text-anchor="middle" x="843.159" y="-99" font-family="Arial" font-size="8.00">Apache Sling Dynamic Class Loader Support</text>
<polyline fill="none" stroke="black" points="754.452,-93.8008 931.866,-93.8008 "/>
<text text-anchor="middle" x="843.159" y="-81.3008" font-family="Arial" font-size="8.00">org.apache.sling.commons.classloader(1.3.0)</text>
</g>
<!-- org_apache_sling_scripting_jsp&#45;&gt;org_apache_sling_commons_classloader -->
<g id="edge46" class="edge"><title>org_apache_sling_scripting_jsp&#45;&gt;org_apache_sling_commons_classloader</title>
<path fill="none" stroke="#bdbdbd" d="M826.373,-148.937C828.911,-140.63 832.023,-130.444 834.876,-121.108"/>
<polygon fill="#bdbdbd" stroke="#bdbdbd" points="838.255,-122.027 837.83,-111.441 831.56,-119.981 838.255,-122.027"/>
</g>
<!-- org_apache_sling_scripting_api -->
<g id="node19" class="node"><title>org_apache_sling_scripting_api</title>
<polygon fill="#bdbdbd" stroke="black" points="568.116,-75 568.116,-111 736.202,-111 736.202,-75 568.116,-75"/>
<text text-anchor="middle" x="652.159" y="-99" font-family="Arial" font-size="8.00">Apache Sling Scripting Implementation API</text>
<polyline fill="none" stroke="black" points="568.116,-93.8008 736.202,-93.8008 "/>
<text text-anchor="middle" x="652.159" y="-81.3008" font-family="Arial" font-size="8.00">org.apache.sling.scripting.api(2.1.4)</text>
</g>
<!-- org_apache_sling_scripting_jsp&#45;&gt;org_apache_sling_scripting_api -->
<g id="edge50" class="edge"><title>org_apache_sling_scripting_jsp&#45;&gt;org_apache_sling_scripting_api</title>
<path fill="none" stroke="#bdbdbd" d="M781.108,-148.937C757.307,-138.797 726.927,-125.854 701.635,-115.078"/>
<polygon fill="#bdbdbd" stroke="#bdbdbd" points="702.786,-111.765 692.215,-111.065 700.043,-118.205 702.786,-111.765"/>
</g>
<!-- org_apache_felix_eventadmin -->
<g id="node20" class="node"><title>org_apache_felix_eventadmin</title>
<polygon fill="#bdbdbd" stroke="black" points="1144.34,-75 1144.34,-111 1287.98,-111 1287.98,-75 1144.34,-75"/>
<text text-anchor="middle" x="1216.16" y="-99" font-family="Arial" font-size="8.00">Apache Felix EventAdmin</text>
<polyline fill="none" stroke="black" points="1144.34,-93.8008 1287.98,-93.8008 "/>
<text text-anchor="middle" x="1216.16" y="-81.3008" font-family="Arial" font-size="8.00">org.apache.felix.eventadmin(1.2.14)</text>
</g>
<!-- org_apache_sling_scripting_jsp&#45;&gt;org_apache_felix_eventadmin -->
<g id="edge54" class="edge"><title>org_apache_sling_scripting_jsp&#45;&gt;org_apache_felix_eventadmin</title>
<path fill="none" stroke="#bdbdbd" d="M894.692,-154.278C958.231,-143.92 1052.45,-128.009 1134.16,-112 1134.26,-111.98 1134.36,-111.96 1134.47,-111.939"/>
<polygon fill="#bdbdbd" stroke="#bdbdbd" points="1135.08,-115.386 1144.2,-109.989 1133.71,-108.522 1135.08,-115.386"/>
</g>
<!-- org_apache_felix_scr&#45;&gt;org_apache_sling_commons_logservice -->
<g id="edge58" class="edge"><title>org_apache_felix_scr&#45;&gt;org_apache_sling_commons_logservice</title>
<path fill="none" stroke="#bdbdbd" d="M1051.43,-111.308C1042.98,-138.423 1028.16,-192.708 1028.16,-240 1028.16,-316 1028.16,-316 1028.16,-316 1028.16,-361.668 1000.48,-408.491 980.442,-436.407"/>
<polygon fill="#bdbdbd" stroke="#bdbdbd" points="977.381,-434.659 974.249,-444.781 983.009,-438.822 977.381,-434.659"/>
</g>
<!-- org_apache_felix_scr&#45;&gt;org_apache_felix_configadmin -->
<g id="edge60" class="edge"><title>org_apache_felix_scr&#45;&gt;org_apache_felix_configadmin</title>
<path fill="none" stroke="#bdbdbd" d="M1044.84,-74.937C1038.52,-66.1886 1030.69,-55.3545 1023.67,-45.6256"/>
<polygon fill="#bdbdbd" stroke="#bdbdbd" points="1026.45,-43.4983 1017.75,-37.4407 1020.77,-47.5967 1026.45,-43.4983"/>
</g>
<!-- org_apache_felix_metatype -->
<g id="node21" class="node"><title>org_apache_felix_metatype</title>
<polygon fill="#bdbdbd" stroke="black" points="1150.79,-1 1150.79,-37 1281.52,-37 1281.52,-1 1150.79,-1"/>
<text text-anchor="middle" x="1216.16" y="-25" font-family="Arial" font-size="8.00">Apache Felix Metatype Service</text>
<polyline fill="none" stroke="black" points="1150.79,-19.8008 1281.52,-19.8008 "/>
<text text-anchor="middle" x="1216.16" y="-7.30078" font-family="Arial" font-size="8.00">org.apache.felix.metatype(1.0.4)</text>
</g>
<!-- org_apache_felix_scr&#45;&gt;org_apache_felix_metatype -->
<g id="edge56" class="edge"><title>org_apache_felix_scr&#45;&gt;org_apache_felix_metatype</title>
<path fill="none" stroke="#bdbdbd" d="M1094.84,-74.937C1117.13,-64.8413 1145.56,-51.968 1169.3,-41.221"/>
<polygon fill="#bdbdbd" stroke="#bdbdbd" points="1170.81,-44.3786 1178.47,-37.0651 1167.92,-38.0019 1170.81,-44.3786"/>
</g>
<!-- org_apache_sling_api&#45;&gt;org_apache_felix_http_jetty -->
<g id="edge62" class="edge"><title>org_apache_sling_api&#45;&gt;org_apache_felix_http_jetty</title>
<path fill="none" stroke="#bdbdbd" d="M492.845,-111.045C489.358,-138.253 483.159,-193.204 483.159,-240 483.159,-390 483.159,-390 483.159,-390 483.159,-443.308 531.495,-487.76 566.813,-513.124"/>
<polygon fill="#bdbdbd" stroke="#bdbdbd" points="564.82,-516.001 575.024,-518.851 568.824,-510.259 564.82,-516.001"/>
</g>
<!-- org_apache_sling_api&#45;&gt;slf4j_api -->
<g id="edge64" class="edge"><title>org_apache_sling_api&#45;&gt;slf4j_api</title>
<path fill="none" stroke="#bdbdbd" d="M550.638,-109.698C553.518,-110.483 556.371,-111.255 559.159,-112 622.058,-128.815 650.996,-106.495 701.159,-148 768.983,-204.118 798.002,-310.53 808.324,-360.624"/>
<polygon fill="#bdbdbd" stroke="#bdbdbd" points="804.941,-361.56 810.302,-370.699 811.81,-360.212 804.941,-361.56"/>
</g>
<!-- org_apache_sling_commons_classloader&#45;&gt;slf4j_api -->
<g id="edge66" class="edge"><title>org_apache_sling_commons_classloader&#45;&gt;slf4j_api</title>
<path fill="none" stroke="#bdbdbd" d="M871.117,-111.224C883.382,-120.455 896.488,-133.022 903.159,-148 910.03,-163.428 906.672,-169.481 903.159,-186 888.911,-252.988 850.82,-324.7 829.033,-362.027"/>
<polygon fill="#bdbdbd" stroke="#bdbdbd" points="825.95,-360.364 823.869,-370.752 831.974,-363.929 825.95,-360.364"/>
</g>
<!-- org_apache_felix_eventadmin&#45;&gt;org_apache_sling_commons_logservice -->
<g id="edge70" class="edge"><title>org_apache_felix_eventadmin&#45;&gt;org_apache_sling_commons_logservice</title>
<path fill="none" stroke="#bdbdbd" d="M1200.25,-111.401C1178.24,-137.365 1141.16,-188.707 1141.16,-240 1141.16,-316 1141.16,-316 1141.16,-316 1141.16,-378.651 1074.65,-418.995 1022.26,-441.054"/>
<polygon fill="#bdbdbd" stroke="#bdbdbd" points="1020.94,-437.815 1013,-444.831 1023.58,-444.298 1020.94,-437.815"/>
</g>
<!-- org_apache_felix_eventadmin&#45;&gt;org_apache_felix_configadmin -->
<g id="edge72" class="edge"><title>org_apache_felix_eventadmin&#45;&gt;org_apache_felix_configadmin</title>
<path fill="none" stroke="#bdbdbd" d="M1166.15,-74.937C1135.78,-64.5733 1096.83,-51.2825 1064.85,-40.3697"/>
<polygon fill="#bdbdbd" stroke="#bdbdbd" points="1065.76,-36.9822 1055.17,-37.0651 1063.5,-43.6071 1065.76,-36.9822"/>
</g>
<!-- org_apache_felix_eventadmin&#45;&gt;org_apache_felix_metatype -->
<g id="edge68" class="edge"><title>org_apache_felix_eventadmin&#45;&gt;org_apache_felix_metatype</title>
<path fill="none" stroke="#bdbdbd" d="M1216.16,-74.937C1216.16,-66.8072 1216.16,-56.8761 1216.16,-47.7047"/>
<polygon fill="#bdbdbd" stroke="#bdbdbd" points="1219.66,-47.4406 1216.16,-37.4407 1212.66,-47.4407 1219.66,-47.4406"/>
</g>
<!-- org_apache_felix_metatype&#45;&gt;org_apache_sling_commons_logservice -->
<g id="edge74" class="edge"><title>org_apache_felix_metatype&#45;&gt;org_apache_sling_commons_logservice</title>
<path fill="none" stroke="#bdbdbd" d="M1253.21,-37.051C1268.7,-45.9664 1285.54,-58.3247 1296.16,-74 1319.63,-108.64 1316.16,-124.156 1316.16,-166 1316.16,-316 1316.16,-316 1316.16,-316 1316.16,-372.625 1160.03,-418.28 1054.57,-442.662"/>
<polygon fill="#bdbdbd" stroke="#bdbdbd" points="1053.5,-439.317 1044.53,-444.955 1055.05,-446.141 1053.5,-439.317"/>
</g>
</g>
</svg>
